# xmcd
#
# Track frame offsets: 
#        150
#        10007
#        18326
#        30405
#        53817
#        63100
#        77333
#        95835
#        113385
#
# Disc length: 1561 seconds
#
# Revision: 0
# Processed by: cddbd v1.5.2PL0 Copyright (c) Steve Scherf et al.
# Submitted via: ExactAudioCopy v0.99pb4
#
DISCID=56061709
DTITLE=Victoria Huggins - Chirstmas with Victoria
DYEAR=2003
DGENRE=Gospel
TTITLE0=Email Santa
TTITLE1=Frosty
TTITLE2=Man With the Bag
TTITLE3=Oh Holy Night
TTITLE4=Rockin' Around the Christmas Tree
TTITLE5=Bobby's Christmas Wish
TTITLE6=Where Are You Christmas
TTITLE7=Away in a Manger
TTITLE8=A Special Message from Victoria
EXTD=
EXTT0=
EXTT1=
EXTT2=
EXTT3=
EXTT4=
EXTT5=
EXTT6=
EXTT7=
EXTT8=
PLAYORDER=
